<svg xmlns="http://www.w3.org/2000/svg" viewBox="0 0 400 520" width="400" height="520">
  <defs>
    <radialGradient id="bg" cx="50%" cy="40%" r="75%">
      <stop offset="0%" stop-color="#10202e"/>
      <stop offset="100%" stop-color="#070d12"/>
    </radialGradient>
    <filter id="glow" x="-40%" y="-40%" width="180%" height="180%">
      <feGaussianBlur stdDeviation="5" result="b"/>
      <feMerge><feMergeNode in="b"/><feMergeNode in="SourceGraphic"/></feMerge>
    </filter>
  </defs>
  <rect width="400" height="520" rx="28" fill="url(#bg)"/>
  <g filter="url(#glow)" stroke="#ff4ecd" stroke-width="2.5" fill="none" opacity="0.95">
    <circle cx="200" cy="205" r="118"/>
    <ellipse cx="200" cy="190" rx="74" ry="90"/>
    <path d="M150 250 Q200 300 250 250" stroke-linecap="round"/>
    <circle cx="172" cy="178" r="7" fill="#ff4ecd"/>
    <circle cx="228" cy="178" r="7" fill="#ff4ecd"/>
    <path d="M150 150 Q172 138 196 150" stroke-linecap="round"/>
    <path d="M204 150 Q228 138 250 150" stroke-linecap="round"/>
    <path d="M196 195 L196 218 Q200 224 204 218 L204 195" stroke-linecap="round"/>
  </g>
  <g filter="url(#glow)" fill="#ff4ecd" opacity="0.9">
    <text x="36" y="60" font-size="26">✦</text>
    <text x="338" y="120" font-size="18">✧</text>
    <text x="60" y="430" font-size="18">✧</text>
  </g>
  <text x="200" y="478" filter="url(#glow)" font-family="sans-serif" font-size="26" font-weight="900" fill="#ff4ecd" text-anchor="middle">福相フェイス</text>
</svg>